<svg xmlns="http://www.w3.org/2000/svg" viewBox="0 0 128 128"><path fill="#7d53de" d="M102.06 128H25.94C11.64 128 0 116.36 0 102.06V25.94C0 11.64 11.64 0 25.94 0h76.13C116.36 0 128 11.64 128 25.94v76.13c0 14.3-11.64 25.94-25.94 25.94Z"/><path fill="#fff" d="M32.44 53.25V41.22h18.74v12.03c.15 4.85 7.18 4.8 7.49 0V33.82H25.15v19.43c.11 4.77 7.13 4.88 7.3 0ZM92.3 28.7c-9.27 0-16.76 7.49-16.76 16.76.89 22.24 32.58 22.24 33.53 0 0-9.27-7.49-16.76-16.76-16.76Zm0 26.03c-5.13 0-9.37-4.24-9.37-9.37s4.24-9.37 9.37-9.37 9.37 4.24 9.37 9.37-4.24 9.37-9.37 9.37ZM93.29 78.3c-2.18-4.31-8.69-1.19-6.61 3.25l2.11 4.23c-15.21 5.8-32.95 6.09-48.41.59l2.41-4.82c.89-1.78.2-4.04-1.68-4.93-1.78-.89-4.04-.2-4.93 1.68l-7.89 15.78c-.89 1.78-.2 4.04 1.68 4.93 1.8.93 4.09.17 4.93-1.68l2.18-4.35c17.48 6.43 37.72 6.09 55.02-.57l2.46 4.92c.9 1.8 3.23 2.6 4.93 1.68 1.87-.89 2.56-3.06 1.68-4.93L93.28 78.3Z"/></svg>